<svg id="clock_1_" data-name="clock (1)" xmlns="http://www.w3.org/2000/svg" width="15.08" height="15.08" viewBox="0 0 15.08 15.08">
  <path id="Path_49" data-name="Path 49" d="M7.54,0a7.54,7.54,0,1,0,7.54,7.54A7.54,7.54,0,0,0,7.54,0Zm0,13.823A6.283,6.283,0,1,1,13.823,7.54,6.283,6.283,0,0,1,7.54,13.823Z" transform="translate(0 0)" fill="#a5a4a4"/>
  <path id="Path_50" data-name="Path 50" d="M10.789,6a.75.75,0,0,0-.75.75V9.993L7.511,11.577a.752.752,0,1,0,.8,1.275l2.88-1.8a.75.75,0,0,0,.352-.643V6.75A.75.75,0,0,0,10.789,6Z" transform="translate(-2.94 -2.691)" fill="#a5a4a4"/>
</svg>
