<svg xmlns="http://www.w3.org/2000/svg" width="24" height="24" viewBox="0 0 24 24">
  <g id="building" transform="translate(-280 -879)">
    <path id="Path_34" data-name="Path 34" d="M62,922.59c-3.612-.436-5.091,2.46-6.331,4.608s-.81,2.74,1.37,3.985,4.079,1.557,7.348,1,6.326-.841,5.729-3.238S65.612,923.026,62,922.59Z" transform="translate(226.017 -43.546)" fill="rgba(50,63,75,0.35)"/>
    <path id="building-2" data-name="building" d="M7,14a1,1,0,0,1-1,1H5a1,1,0,0,1,0-2H6A1,1,0,0,1,7,14Zm4-1H10a1,1,0,0,0,0,2h1a1,1,0,0,0,0-2ZM6,17H5a1,1,0,0,0,0,2H6a1,1,0,0,0,0-2Zm5,0H10a1,1,0,0,0,0,2h1a1,1,0,0,0,0-2ZM6,5H5A1,1,0,0,0,5,7H6A1,1,0,0,0,6,5Zm5,0H10a1,1,0,0,0,0,2h1a1,1,0,0,0,0-2ZM6,9H5a1,1,0,0,0,0,2H6A1,1,0,0,0,6,9Zm5,0H10a1,1,0,0,0,0,2h1a1,1,0,0,0,0-2Zm13,1v9a5.006,5.006,0,0,1-5,5H5a5.006,5.006,0,0,1-5-5V5A5.006,5.006,0,0,1,5,0h6a5.006,5.006,0,0,1,5,5h3a5.006,5.006,0,0,1,5,5ZM5,22h9V5a3,3,0,0,0-3-3H5A3,3,0,0,0,2,5V19A3,3,0,0,0,5,22ZM22,10a3,3,0,0,0-3-3H16V22h3a3,3,0,0,0,3-3Zm-3,3a1,1,0,1,0,1,1A1,1,0,0,0,19,13Zm0,4a1,1,0,1,0,1,1A1,1,0,0,0,19,17Zm0-8a1,1,0,1,0,1,1A1,1,0,0,0,19,9Z" transform="translate(280 879)"/>
  </g>
</svg>
