<svg xmlns="http://www.w3.org/2000/svg" width="23.999" height="24" viewBox="0 0 23.999 24">
    <g id="close" transform="translate(-0.039 0.001)">
        <path id="Path_142" data-name="Path 142" d="M1.273,24A1.235,1.235,0,0,1,.4,21.891L21.931.361a1.235,1.235,0,0,1,1.746,1.746L2.147,23.637A1.238,1.238,0,0,1,1.273,24Zm0,0" transform="translate(0)" fill="#323f4b"/>
        <path id="Path_143" data-name="Path 143" d="M22.8,24a1.225,1.225,0,0,1-.872-.362L.4,2.108A1.235,1.235,0,0,1,2.147.361l21.53,21.53A1.235,1.235,0,0,1,22.8,24Zm0,0" transform="translate(0 0)" fill="#323f4b"/>
    </g>
</svg>
