<?xml version="1.0" standalone="no"?>
<!DOCTYPE svg PUBLIC "-//W3C//DTD SVG 20010904//EN"
 "http://www.w3.org/TR/2001/REC-SVG-20010904/DTD/svg10.dtd">
<svg version="1.0" xmlns="http://www.w3.org/2000/svg"
 width="512.000000pt" height="512.000000pt" viewBox="0 0 512.000000 512.000000"
 preserveAspectRatio="xMidYMid meet">

<g transform="translate(0.000000,512.000000) scale(0.100000,-0.100000)"
fill="#000000" stroke="none">
<path d="M3182 5107 c-47 -18 -99 -63 -121 -105 -26 -53 -75 -312 -68 -363 19
-146 201 -239 333 -171 69 35 96 76 149 228 59 168 63 226 22 297 -35 60 -66
83 -144 107 -73 22 -122 24 -171 7z m152 -158 c50 -23 51 -50 6 -185 -23 -68
-50 -134 -60 -146 -37 -46 -140 -11 -140 47 0 12 11 78 25 146 29 144 44 165
107 155 21 -3 48 -11 62 -17z"/>
<path d="M1952 5091 c-70 -26 -139 -77 -182 -134 -19 -25 -66 -113 -104 -194
-37 -81 -82 -170 -99 -198 -49 -78 -144 -172 -237 -235 -104 -70 -185 -155
-230 -242 l-33 -64 -41 21 c-37 18 -63 20 -284 23 -289 4 -317 -2 -393 -78
-65 -65 -79 -116 -79 -287 0 -74 4 -142 10 -152 5 -10 22 -24 39 -30 24 -10
34 -10 59 3 16 8 32 23 36 31 3 9 6 75 6 146 0 217 2 219 305 219 238 0 261
-5 290 -60 13 -26 15 -127 13 -830 l-3 -800 -33 -32 -32 -33 -223 -3 c-219 -3
-223 -3 -257 20 -19 13 -40 35 -47 48 -10 19 -13 151 -13 556 l0 531 -23 21
c-31 29 -77 29 -106 -1 l-22 -24 3 -554 c3 -550 3 -554 25 -595 30 -56 79
-103 133 -128 42 -20 63 -21 295 -21 247 0 251 0 301 25 l51 26 59 -33 c101
-56 158 -63 483 -63 l291 0 0 -338 c0 -372 4 -403 59 -480 17 -22 52 -53 78
-69 l48 -28 270 0 c244 0 274 2 308 19 21 10 39 17 40 15 1 -2 16 -30 32 -62
43 -84 124 -169 226 -238 96 -64 171 -134 219 -204 17 -24 70 -127 119 -229
72 -149 99 -195 138 -234 86 -86 221 -131 336 -112 218 35 372 240 338 449
-10 63 -24 97 -165 396 l-84 180 229 5 c256 6 263 8 263 76 0 26 -7 42 -23 55
-22 18 -45 19 -318 19 l-294 0 -24 -25 c-14 -13 -25 -35 -25 -49 0 -14 66
-166 147 -338 138 -295 146 -316 146 -373 0 -69 -18 -117 -62 -168 -73 -82
-191 -104 -294 -53 -71 34 -93 65 -173 237 -37 79 -85 174 -108 212 -54 92
-170 208 -279 281 -101 67 -148 118 -188 201 -42 88 -49 164 -49 537 l0 337
38 18 c51 24 113 89 143 148 20 41 24 65 24 135 0 84 -15 135 -57 192 -11 15
-9 20 12 35 140 96 179 298 85 437 -18 27 -21 38 -12 42 7 2 314 3 683 2 l670
-3 41 -27 c49 -32 73 -80 73 -146 0 -85 -57 -146 -150 -161 -83 -13 -114 -67
-70 -123 18 -23 28 -26 108 -30 104 -5 145 -25 181 -88 30 -53 26 -131 -8
-179 -27 -37 -88 -71 -129 -71 -72 0 -109 -81 -59 -128 19 -18 35 -22 95 -22
87 0 127 -15 169 -63 55 -63 56 -150 2 -211 -42 -49 -86 -66 -167 -66 -55 0
-75 -4 -96 -21 -54 -42 -18 -129 53 -129 47 0 114 -41 138 -85 42 -75 26 -157
-43 -221 -40 -37 -43 -69 -13 -108 34 -44 80 -36 138 22 98 98 119 245 54 372
l-33 62 26 21 c49 38 76 72 103 127 21 45 26 69 26 130 0 107 -41 188 -129
257 l-26 21 33 63 c29 56 32 71 32 148 0 65 -5 97 -21 131 -21 46 -70 103
-112 132 l-24 16 25 39 c39 59 50 108 45 192 -7 127 -68 214 -188 270 l-55 26
-617 3 c-340 1 -618 4 -618 6 0 1 5 28 11 60 20 108 -30 235 -118 302 l-41 32
22 33 c39 59 51 101 51 179 -1 93 -33 167 -101 230 -91 84 -96 85 -461 88
-178 2 -323 5 -323 6 0 2 50 108 110 237 132 279 144 315 138 419 -9 146 -92
270 -226 333 -57 27 -80 32 -157 35 -69 2 -102 -2 -143 -17z m234 -150 c96
-43 150 -136 142 -243 -4 -56 -21 -98 -146 -362 -78 -164 -142 -306 -143 -315
-3 -35 2 -52 21 -71 19 -19 34 -20 388 -20 385 -1 416 -4 464 -47 27 -24 58
-91 58 -127 0 -16 -9 -49 -21 -73 -24 -50 -88 -93 -137 -93 -46 0 -85 -38 -84
-81 1 -50 30 -69 106 -69 84 0 130 -15 171 -55 64 -64 67 -156 8 -226 -37 -43
-80 -59 -160 -59 -99 0 -143 -38 -121 -103 12 -33 28 -42 93 -52 40 -6 58 -15
91 -49 70 -70 71 -167 1 -234 -43 -41 -75 -52 -156 -52 -54 0 -74 -4 -95 -21
-52 -41 -19 -129 49 -129 18 0 51 -10 75 -23 51 -27 90 -90 90 -147 0 -57 -39
-120 -90 -147 l-43 -23 -706 0 c-727 0 -744 1 -826 41 l-40 20 2 827 c2 557 6
847 14 887 24 131 91 224 228 314 101 66 191 152 251 241 23 34 78 138 122
229 44 91 90 180 104 197 57 76 198 107 290 65z m484 -3322 l0 -351 -34 -34
-34 -34 -226 0 c-240 0 -263 4 -293 49 -16 23 -18 61 -21 374 l-3 347 306 0
305 0 0 -351z"/>
<path d="M3820 4644 c-44 -25 -220 -216 -247 -268 -57 -108 1 -256 121 -312
95 -44 164 -28 274 64 177 149 211 195 212 285 0 65 -22 113 -78 170 -64 66
-108 87 -179 87 -44 0 -69 -7 -103 -26z m174 -163 c31 -31 37 -44 34 -71 -3
-28 -19 -48 -110 -127 -121 -104 -141 -111 -189 -64 -52 52 -46 66 94 224 85
94 110 100 171 38z"/>
<path d="M4230 3975 c-74 -26 -146 -53 -160 -60 -83 -43 -132 -148 -111 -239
17 -74 55 -132 105 -161 67 -39 120 -40 285 -6 172 35 211 57 254 140 32 64
34 107 8 190 -34 109 -98 166 -199 177 -38 4 -73 -4 -182 -41z m218 -133 c19
-25 34 -91 27 -119 -8 -32 -42 -45 -192 -74 l-123 -23 -24 23 c-35 33 -43 77
-19 109 14 19 52 37 144 68 127 44 163 47 187 16z"/>
<path d="M879 1611 c-153 -32 -195 -56 -233 -132 -30 -61 -33 -116 -11 -194
33 -113 110 -175 217 -175 40 0 91 13 191 49 157 55 178 67 213 121 39 59 48
111 29 184 -29 114 -107 177 -220 175 -33 0 -117 -13 -186 -28z m231 -131 c29
-15 42 -76 25 -110 -12 -24 -33 -34 -137 -69 -122 -41 -162 -48 -185 -33 -18
11 -43 76 -43 110 0 45 31 64 143 88 114 25 169 29 197 14z"/>
<path d="M1377 1062 c-62 -28 -263 -208 -287 -256 -26 -56 -27 -143 -1 -194
26 -49 107 -127 153 -147 50 -20 124 -19 174 4 45 20 223 212 257 276 44 82
30 176 -36 252 -23 25 -59 54 -82 64 -50 23 -129 24 -178 1z m144 -161 c47
-47 40 -67 -66 -191 -86 -98 -100 -110 -128 -110 -49 0 -110 65 -105 111 2 28
19 48 107 126 118 106 142 114 192 64z"/>
<path d="M1943 664 c-74 -27 -113 -82 -168 -239 -59 -170 -63 -228 -22 -298
15 -25 41 -56 58 -68 37 -26 139 -59 184 -59 79 0 158 49 195 120 22 43 70
276 70 338 0 93 -67 178 -162 207 -63 18 -100 18 -155 -1z m122 -148 c49 -21
52 -46 22 -199 -30 -153 -44 -173 -109 -163 -55 9 -84 25 -97 53 -10 22 -5 44
30 151 41 124 70 172 104 172 9 0 31 -6 50 -14z"/>
</g>
</svg>
