<svg xmlns="http://www.w3.org/2000/svg" width="36.766" height="28" viewBox="0 0 36.766 28">
    <g id="gmail" transform="translate(0 -63.733)">
        <rect id="Rectangle_23" data-name="Rectangle 23" width="28" height="28" transform="translate(4.383 63.733)" fill="#eceff1"/>
        <path id="Path_38" data-name="Path 38" d="M256,159.279l13.787,10.887V148.672Z" transform="translate(-237.617 -78.646)" fill="#cfd8dc"/>
        <path id="Path_39" data-name="Path 39" d="M33.319,64H32.17L18.383,74.887,4.6,64H3.447A3.448,3.448,0,0,0,0,67.447V88.128a3.448,3.448,0,0,0,3.447,3.447H4.6V70.08l13.787,10.6L32.17,70.078v21.5h1.149a3.448,3.448,0,0,0,3.447-3.447V67.447A3.448,3.448,0,0,0,33.319,64Z" transform="translate(0 -0.054)" fill="#f44336"/>
    </g>
</svg>
