<svg xmlns="http://www.w3.org/2000/svg" width="24" height="23.986" viewBox="0 0 24 23.986">
  <g id="home" transform="translate(-46 -879.007)">
    <path id="Path_31" data-name="Path 31" d="M62,922.59c-3.612-.436-5.091,2.46-6.331,4.608s-.81,2.74,1.37,3.985,4.079,1.557,7.348,1,6.326-.841,5.729-3.238S65.612,923.026,62,922.59Z" transform="translate(-4 -42)" fill="#323f4b"/>
    <path id="home_1_" data-name="home (1)" d="M23.121,9.069,15.536,1.483a5.008,5.008,0,0,0-7.072,0L.879,9.069A2.978,2.978,0,0,0,0,11.19v9.817a3,3,0,0,0,3,3H21a3,3,0,0,0,3-3V11.19A2.978,2.978,0,0,0,23.121,9.069ZM15,22.007H9V18.073a3,3,0,0,1,6,0Zm7-1a1,1,0,0,1-1,1H17V18.073a5,5,0,0,0-10,0v3.934H3a1,1,0,0,1-1-1V11.19a1.008,1.008,0,0,1,.293-.707L9.878,2.9a3.008,3.008,0,0,1,4.244,0l7.585,7.586a1.008,1.008,0,0,1,.293.7Z" transform="translate(46 878.986)"/>
  </g>
</svg>
