<?xml version="1.0" standalone="no"?>
<!DOCTYPE svg PUBLIC "-//W3C//DTD SVG 20010904//EN"
 "http://www.w3.org/TR/2001/REC-SVG-20010904/DTD/svg10.dtd">
<svg version="1.0" xmlns="http://www.w3.org/2000/svg"
 width="50.000000pt" height="50.000000pt" viewBox="0 0 50.000000 50.000000"
 preserveAspectRatio="xMidYMid meet">

<g transform="translate(0.000000,50.000000) scale(0.100000,-0.100000)"
fill="#000000" stroke="none">
<path d="M185 466 c-61 -27 -105 -94 -105 -159 0 -41 40 -125 74 -156 19 -18
26 -34 26 -62 0 -34 4 -40 35 -55 33 -15 37 -15 70 0 31 15 35 21 35 55 0 28
7 44 26 62 35 31 74 115 74 157 0 118 -129 205 -235 158z m135 -26 c41 -21 80
-80 80 -121 0 -42 -24 -100 -57 -139 -33 -38 -37 -40 -93 -40 -56 0 -60 2 -94
42 -79 92 -71 199 20 254 48 29 92 30 144 4z m-20 -350 c0 -29 -1 -30 -50 -30
-49 0 -50 1 -50 30 0 29 1 30 50 30 49 0 50 -1 50 -30z"/>
</g>
</svg>
