<svg xmlns="http://www.w3.org/2000/svg" width="36" height="36" viewBox="0 0 36 36">
    <g id="linkedin" transform="translate(0.284 0.284)">
        <g id="Layer_2" data-name="Layer 2">
            <g id="linkedin-2" data-name="linkedin">
                <rect id="background" width="36" height="36" rx="4" transform="translate(-0.284 -0.284)" fill="#0077b5"/>
                <g id="icon" transform="translate(6.724 6.644)">
                    <path id="Path_40" data-name="Path 40" d="M39.44,36.02A3.02,3.02,0,1,1,36.42,33,3.02,3.02,0,0,1,39.44,36.02Z" transform="translate(-33.4 -33)" fill="#fff"/>
                    <path id="Path_41" data-name="Path 41" d="M41.439,70.029V83.37a.747.747,0,0,1-.747.751H37.509a.747.747,0,0,1-.749-.749V70.029a.749.749,0,0,1,.749-.749h3.183A.749.749,0,0,1,41.439,70.029Z" transform="translate(-36.084 -61.976)" fill="#fff"/>
                    <path id="Path_42" data-name="Path 42" d="M85,76.1v6.458a.686.686,0,0,1-.689.689H80.888a.686.686,0,0,1-.689-.689V76.3c0-.934.274-4.091-2.442-4.091-2.1,0-2.533,2.16-2.617,3.131v7.219a.689.689,0,0,1-.679.689H71.156a.687.687,0,0,1-.687-.689V69.092a.686.686,0,0,1,.687-.689h3.306a.689.689,0,0,1,.689.688v1.164c.781-1.172,1.939-2.076,4.409-2.076,5.472,0,5.44,5.109,5.44,7.916Z" transform="translate(-63.007 -61.098)" fill="#fff"/>
                </g>
            </g>
        </g>
    </g>
</svg>
