<svg xmlns="http://www.w3.org/2000/svg" xmlns:xlink="http://www.w3.org/1999/xlink" width="20.834" height="24.807" viewBox="0 0 20.834 24.807">
  <defs>
    <linearGradient id="linear-gradient" x1="0.5" x2="0.5" y2="1" gradientUnits="objectBoundingBox">
      <stop offset="0" stop-color="#323f4b"/>
      <stop offset="1" stop-color="#0a0d0f"/>
    </linearGradient>
  </defs>
  <g id="location-grad" transform="translate(-41)">
    <path id="Path_57" data-name="Path 57" d="M51.417,12.936a4.551,4.551,0,1,1,4.495-3.817A.969.969,0,1,1,54,8.807a2.654,2.654,0,0,0,.034-.425A2.616,2.616,0,1,0,51.417,11a2.665,2.665,0,0,0,.355-.024.969.969,0,0,1,.259,1.921A4.619,4.619,0,0,1,51.417,12.936Zm-3.955,3.727c-2.174-2.334-4.423-4.747-4.426-8.328a8.274,8.274,0,0,1,2.454-5.912,8.492,8.492,0,0,1,11.876,0,8.241,8.241,0,0,1,2.482,5.913c0,3.578-2.263,5.987-4.448,8.316a26.332,26.332,0,0,0-3.163,3.831.969.969,0,0,1-1.638,0A26.625,26.625,0,0,0,47.461,16.663ZM44.973,8.335c0,2.818,1.812,4.759,3.906,7.007a37.3,37.3,0,0,1,2.538,2.923,36.877,36.877,0,0,1,2.568-2.942c2.1-2.243,3.921-4.18,3.924-6.99a6.457,6.457,0,0,0-6.492-6.395A6.357,6.357,0,0,0,44.973,8.335Zm15.3,10.881a11.751,11.751,0,0,0-3.042-.979.969.969,0,0,0-.386,1.9,6.6,6.6,0,0,1,3,1.11,5.278,5.278,0,0,1-2.424,1.006,26.747,26.747,0,0,1-6,.616,26.747,26.747,0,0,1-6-.616,5.277,5.277,0,0,1-2.424-1.006,6.6,6.6,0,0,1,3-1.11.969.969,0,0,0-.386-1.9,11.751,11.751,0,0,0-3.042.979A2.387,2.387,0,0,0,41,21.248c0,1.2,1.171,2.133,3.48,2.766a27.4,27.4,0,0,0,6.937.793,27.4,27.4,0,0,0,6.937-.793c2.309-.633,3.48-1.564,3.48-2.766A2.387,2.387,0,0,0,60.272,19.216Z" transform="translate(0 0)" fill="url(#linear-gradient)"/>
  </g>
</svg>
