<svg id="marker" xmlns="http://www.w3.org/2000/svg" width="15.08" height="17.998" viewBox="0 0 15.08 17.998">
  <path id="Path_23" data-name="Path 23" d="M11,6a3,3,0,1,0,3,3A3,3,0,0,0,11,6Zm0,4.5A1.5,1.5,0,1,1,12.5,9,1.5,1.5,0,0,1,11,10.5Z" transform="translate(-3.46 -1.499)" fill="#a5a4a4"/>
  <path id="Path_24" data-name="Path 24" d="M9.485,18a3.952,3.952,0,0,1-3.233-1.65C3.394,12.4,1.945,9.441,1.945,7.538a7.54,7.54,0,1,1,15.08,0c0,1.9-1.449,4.867-4.307,8.809A3.952,3.952,0,0,1,9.485,18Zm0-16.361a5.911,5.911,0,0,0-5.9,5.9c0,1.507,1.419,4.294,4,7.848a2.358,2.358,0,0,0,3.817,0c2.577-3.554,4-6.341,4-7.848a5.911,5.911,0,0,0-5.9-5.9Z" transform="translate(-1.945 0.002)" fill="#a5a4a4"/>
</svg>
