<svg xmlns="http://www.w3.org/2000/svg" xmlns:xlink="http://www.w3.org/1999/xlink" width="24" height="24" viewBox="0 0 24 24">
  <defs>
    <clipPath id="clip-path">
      <rect id="Rectangle_63" data-name="Rectangle 63" width="24" height="24" transform="translate(42 468.621)" fill="#fff" stroke="#707070" stroke-width="1"/>
    </clipPath>
  </defs>
  <g id="Mask_Group_6" data-name="Mask Group 6" transform="translate(-42 -468.621)" clip-path="url(#clip-path)">
    <g id="privacy-policy" transform="translate(42 468.621)">
      <g id="Group_49" data-name="Group 49">
        <path id="Path_146" data-name="Path 146" d="M6.422,6.359a.352.352,0,0,0,0,.7H11.3a.352.352,0,0,0,0-.7Z"/>
        <path id="Path_147" data-name="Path 147" d="M17.256,13.831a1.732,1.732,0,0,0,1.73-1.73v-.5a1.73,1.73,0,1,0-3.461,0v.5A1.732,1.732,0,0,0,17.256,13.831ZM16.229,11.6a1.027,1.027,0,1,1,2.054,0v.5a1.027,1.027,0,0,1-2.054,0Z"/>
        <path id="Path_148" data-name="Path 148" d="M14.87,14.168a2.814,2.814,0,0,0-.438,1.511v1.068a.934.934,0,0,0,.933.933h3.782a.934.934,0,0,0,.933-.933V15.678a2.814,2.814,0,0,0-.438-1.511h0a.9.9,0,0,0-1.247-.28,2.113,2.113,0,0,1-2.278,0A.9.9,0,0,0,14.87,14.168Zm2.772.73-.386.636L16.87,14.9A2.829,2.829,0,0,0,17.642,14.9Zm-2.008-.448c.071,0,.1.029.192.085L16.719,16a.629.629,0,0,0,1.075,0l.892-1.469c.091-.053.139-.1.235-.08a.2.2,0,0,1,.128.09h0c.483.761.281,1.42.329,2.2a.23.23,0,0,1-.23.23H15.365a.23.23,0,0,1-.23-.23V15.678a2.112,2.112,0,0,1,.329-1.134A.2.2,0,0,1,15.634,14.45Z"/>
        <path id="Path_149" data-name="Path 149" d="M23.235,11.463a4.6,4.6,0,0,1-2.562-2.788,1.072,1.072,0,0,0-.85-.732,16.562,16.562,0,0,0-5.135,0,1.072,1.072,0,0,0-.85.732,4.589,4.589,0,0,1-.752,1.4H2.937a.352.352,0,0,0,0,.7H12.4a4.6,4.6,0,0,1-1.122.683,1.064,1.064,0,0,0-.646,1.1q.021.2.049.4H2.937a.352.352,0,1,0,0,.7h7.868a10.8,10.8,0,0,0,.714,2.175H2.937a.352.352,0,0,0,0,.7h8.929a11,11,0,0,0,.758,1.21,10.732,10.732,0,0,0,.783.965H2.937a.352.352,0,0,0,0,.7H14.115a9.41,9.41,0,0,0,2.738,1.732l.052.02v1.377a.756.756,0,0,1-.755.755H1.571a.756.756,0,0,1-.755-.755V6.086H4.877A1.324,1.324,0,0,0,6.2,4.764V.7h9.951a.756.756,0,0,1,.755.755v5.23a.352.352,0,0,0,.7,0V1.458A1.46,1.46,0,0,0,16.149,0H5.85A.348.348,0,0,0,5.8,0H5.786l-.016,0h0l-.007,0h0l-.016,0h0L5.721.024h0A.351.351,0,0,0,5.6.1L.216,5.486a.352.352,0,0,0-.1.26v16.8A1.46,1.46,0,0,0,1.571,24H16.149a1.46,1.46,0,0,0,1.458-1.458V21.165l.051-.019a10.07,10.07,0,0,0,4.9-4.453.352.352,0,1,0-.614-.343,9.365,9.365,0,0,1-4.552,4.146.366.366,0,0,1-.275,0,8.727,8.727,0,0,1-2.6-1.668.355.355,0,0,0-.047-.043,9.853,9.853,0,0,1-1.273-1.449,10.288,10.288,0,0,1-.789-1.284A.351.351,0,0,0,12.378,16a10.1,10.1,0,0,1-.934-2.734.35.35,0,0,0-.008-.042q-.067-.366-.106-.736a.365.365,0,0,1,.223-.375A5.3,5.3,0,0,0,14.506,8.9a.372.372,0,0,1,.291-.257,15.862,15.862,0,0,1,4.917,0,.372.372,0,0,1,.291.257,5.3,5.3,0,0,0,2.954,3.215.365.365,0,0,1,.223.375,9.993,9.993,0,0,1-.653,2.637.352.352,0,0,0,.654.259,10.7,10.7,0,0,0,.7-2.822A1.065,1.065,0,0,0,23.235,11.463ZM4.877,5.383H1.313L5.5,1.2V4.764A.62.62,0,0,1,4.877,5.383Z"/>
      </g>
    </g>
  </g>
</svg>
