<svg xmlns="http://www.w3.org/2000/svg" xmlns:xlink="http://www.w3.org/1999/xlink" width="24" height="24" viewBox="0 0 24 24">
  <defs>
    <clipPath id="clip-path">
      <rect id="Rectangle_52" data-name="Rectangle 52" width="24" height="24" transform="translate(42 522.621)" fill="#fff" stroke="#707070" stroke-width="1"/>
    </clipPath>
  </defs>
  <g id="Mask_Group_3" data-name="Mask Group 3" transform="translate(-42 -522.621)" clip-path="url(#clip-path)">
    <g id="feedback" transform="translate(42 522.621)">
      <g id="Group_47" data-name="Group 47">
        <path id="Path_131" data-name="Path 131" d="M22.307,16.366a1.47,1.47,0,0,0,.426-1.065,1.5,1.5,0,0,0-.777-1.281,1.5,1.5,0,0,0-.41-2.294,1.494,1.494,0,0,0,.261-.43l.005-.014a1.5,1.5,0,0,0-1.4-2.035h-5.5a1.471,1.471,0,0,0-.315-1.6,1.537,1.537,0,0,0-.356-.27A1.5,1.5,0,0,0,13.122,4.89H10.432L11.462,2.7A1.871,1.871,0,0,0,9.77.03,1.88,1.88,0,0,0,8.076,1.106L7.538,2.251a3.337,3.337,0,0,1-1.33,1.472A2.778,2.778,0,0,0,5.069,5c-.022.05-.042.1-.061.15a1.241,1.241,0,0,0-.722-.231H2.515A1.251,1.251,0,0,0,1.266,6.168v1.01a.352.352,0,0,0,.7,0V6.168a.547.547,0,0,1,.546-.546H4.285a.547.547,0,0,1,.546.546v7.149a.547.547,0,0,1-.546.546H2.515a.547.547,0,0,1-.546-.546V8.583a.352.352,0,1,0-.7,0v4.734a1.251,1.251,0,0,0,1.249,1.249H4.285a1.242,1.242,0,0,0,.765-.263,2.375,2.375,0,0,0,1.413.461H8.969v3.08a1.251,1.251,0,0,0,1.249,1.249h1.77a1.242,1.242,0,0,0,.723-.231c.019.05.039.1.061.15a2.781,2.781,0,0,0,1.139,1.276,3.335,3.335,0,0,1,1.33,1.471l.537,1.146a1.87,1.87,0,0,0,2.489.9,1.871,1.871,0,0,0,.9-2.488l-1.03-2.195h1.987a.352.352,0,1,0,0-.7H17.6a.352.352,0,0,0-.3.161l-.013.02a.352.352,0,0,0-.021.337l1.258,2.679a1.168,1.168,0,0,1-1.056,1.664,1.174,1.174,0,0,1-1.058-.672l-.537-1.146a4.036,4.036,0,0,0-1.611-1.779,2.082,2.082,0,0,1-.852-.955,2.056,2.056,0,0,1-.177-.877v0s0,0,0,0V14.668a1.5,1.5,0,0,0,.871-1.941l0-.011a1.493,1.493,0,0,0-.261-.43,1.5,1.5,0,0,0,.41-2.294c.024-.013.047-.028.07-.042h6.09a.8.8,0,0,1,.795.8.8.8,0,0,1-.055.293l0,.006a.8.8,0,0,1-.175.263.789.789,0,0,1-.562.232.352.352,0,1,0,0,.7h.411a.795.795,0,1,1,0,1.59.352.352,0,1,0,0,.7h.412a.8.8,0,0,1,.794.78.772.772,0,0,1-.226.559.837.837,0,0,1-.594.251h-.386a.352.352,0,1,0,0,.7.8.8,0,0,1,.562,1.358.736.736,0,0,1-.1.081.352.352,0,1,0,.4.575,1.442,1.442,0,0,0,.188-.159,1.5,1.5,0,0,0,.067-2.047,1.538,1.538,0,0,0,.356-.27ZM11.988,18.39h-1.77a.547.547,0,0,1-.546-.546v-3.08h2.862v3.08A.547.547,0,0,1,11.988,18.39Zm1.133-6.622H12.71a.352.352,0,1,0,0,.7.8.8,0,0,1,.737.5l0,.007a.8.8,0,0,1-.74,1.087H6.464a1.677,1.677,0,0,1-1-.328,1.244,1.244,0,0,0,.072-.417V6.168s0,0,0-.007h0a2.05,2.05,0,0,1,.177-.876,2.079,2.079,0,0,1,.852-.955A4.037,4.037,0,0,0,8.174,2.55L8.712,1.4A1.174,1.174,0,0,1,9.77.733a1.155,1.155,0,0,1,.495.111A1.169,1.169,0,0,1,10.826,2.4L9.568,5.076a.352.352,0,0,0,.017.33l.018.028a.352.352,0,0,0,.295.16h3.224a.795.795,0,1,1,0,1.59.352.352,0,0,0,0,.7h.386a.836.836,0,0,1,.593.251.774.774,0,0,1,.227.56.8.8,0,0,1-.794.779h-.412a.352.352,0,0,0,0,.7.795.795,0,1,1,0,1.589Z"/>
        <path id="Path_132" data-name="Path 132" d="M6.041,17.157l-.026-.1h0a1.038,1.038,0,0,0-1.2-.748l-1.084.212a1.035,1.035,0,0,0-.8,1.283L3,18.051a1.036,1.036,0,0,0,1.335.711L5.377,18.4a1.038,1.038,0,0,0,.664-1.247Zm-.892.582L4.1,18.1a.332.332,0,0,1-.428-.228l-.065-.244a.332.332,0,0,1,.257-.411L4.951,17a.329.329,0,0,1,.063-.006.333.333,0,0,1,.321.246h0l.026.1a.333.333,0,0,1-.213.4Z"/>
        <path id="Path_133" data-name="Path 133" d="M7.593,19.231a1.038,1.038,0,0,0-1.412-.048l-.833.726A1.035,1.035,0,0,0,5.3,21.42l.179.179a1.039,1.039,0,0,0,.732.3h.035a1.038,1.038,0,0,0,.745-.354l.726-.833A1.038,1.038,0,0,0,7.665,19.3Zm-.41,1.022-.726.833a.332.332,0,0,1-.485.017l-.179-.179a.332.332,0,0,1,.017-.485l.833-.726a.333.333,0,0,1,.452.015l.072.072a.333.333,0,0,1,.015.452Z"/>
        <path id="Path_134" data-name="Path 134" d="M9.837,20.882l-.1-.026h0a1.038,1.038,0,0,0-1.247.664l-.358,1.045A1.035,1.035,0,0,0,8.845,23.9l.244.066a1.035,1.035,0,0,0,1.283-.8l.212-1.084a1.038,1.038,0,0,0-.748-1.2ZM9.9,21.945l-.212,1.084a.332.332,0,0,1-.411.257l-.244-.066a.332.332,0,0,1-.228-.428l.358-1.045a.333.333,0,0,1,.314-.224.329.329,0,0,1,.085.011l.1.026a.333.333,0,0,1,.24.384Z"/>
        <path id="Path_135" data-name="Path 135" d="M18.562,6.823l.026.1h0a1.033,1.033,0,0,0,1.2.746l1.081-.212a1.033,1.033,0,0,0,.8-1.281L21.6,5.931a1.033,1.033,0,0,0-1.332-.71l-1.042.357a1.036,1.036,0,0,0-.663,1.244Zm.891-.579,1.042-.357a.331.331,0,0,1,.107-.018.33.33,0,0,1,.318.245l.065.244a.33.33,0,0,1-.255.409l-1.081.212a.33.33,0,0,1-.382-.238h0l-.026-.1a.331.331,0,0,1,.211-.4Z"/>
        <path id="Path_136" data-name="Path 136" d="M17.015,4.756h0a1.036,1.036,0,0,0,1.409.048l.83-.724a1.033,1.033,0,0,0,.052-1.509l-.178-.178a1.033,1.033,0,0,0-1.509.052l-.724.83a1.036,1.036,0,0,0,.048,1.409Zm.41-1.019.724-.83a.33.33,0,0,1,.482-.017l.178.178a.33.33,0,0,1-.016.481l-.83.724a.331.331,0,0,1-.45-.015l-.072-.072a.331.331,0,0,1-.015-.45Z"/>
        <path id="Path_137" data-name="Path 137" d="M14.778,3.111l.1.026a1.024,1.024,0,0,0,.266.035,1.037,1.037,0,0,0,.979-.7l.357-1.042A1.033,1.033,0,0,0,15.768.1L15.524.035a1.033,1.033,0,0,0-1.281.8l-.212,1.081a1.036,1.036,0,0,0,.746,1.2ZM14.722,2.05,14.933.969A.33.33,0,0,1,15.256.7a.334.334,0,0,1,.086.011l.244.065a.33.33,0,0,1,.226.425l-.357,1.042a.33.33,0,0,1-.4.211h0l-.1-.026a.331.331,0,0,1-.238-.382Z"/>
      </g>
    </g>
  </g>
</svg>
