<svg xmlns="http://www.w3.org/2000/svg" xmlns:xlink="http://www.w3.org/1999/xlink" width="23.982" height="24" viewBox="0 0 24 24">
  <defs>
    <clipPath id="clip-path">
      <rect id="Rectangle_54" data-name="Rectangle 54" width="24" height="24" transform="translate(42 576.621)" fill="#fff" stroke="#707070" stroke-width="1"/>
    </clipPath>
  </defs>
  <g id="Mask_Group_4" data-name="Mask Group 4" transform="translate(-42 -576.621)" clip-path="url(#clip-path)">
    <g id="contact-us" transform="translate(40.75 575.371)">
      <g id="_x33_">
        <path id="Path_138" data-name="Path 138" d="M24.24,14.1v-.84A10.959,10.959,0,0,0,21.72,6.281a1.522,1.522,0,0,0-.309-1.815,11.964,11.964,0,0,0-16.321,0A1.522,1.522,0,0,0,4.78,6.281a10.959,10.959,0,0,0-2.52,6.978V14.1a3.244,3.244,0,0,0,1.822,5.57,1.73,1.73,0,0,0,3.385-.508V13.733a1.73,1.73,0,0,0-3.387-.5,3.221,3.221,0,0,0-.82.216v-.186A9.961,9.961,0,0,1,5.506,6.972,1.527,1.527,0,0,0,7.165,6.7a8.916,8.916,0,0,1,12.171,0,1.518,1.518,0,0,0,1.658.274,9.96,9.96,0,0,1,2.247,6.287v.187a3.222,3.222,0,0,0-.821-.217,1.73,1.73,0,0,0-3.387.5V19.16a1.732,1.732,0,0,0,1.235,1.653v.746a1.531,1.531,0,0,1-1.53,1.53H15.574A1.658,1.658,0,0,0,14,21.928H12.5a1.661,1.661,0,1,0,0,3.322H14a1.657,1.657,0,0,0,1.575-1.161h3.163a2.533,2.533,0,0,0,2.53-2.53v-.747a1.73,1.73,0,0,0,1.15-1.144A3.244,3.244,0,0,0,24.24,14.1ZM5.732,13a.736.736,0,0,1,.735.735V19.16a.735.735,0,0,1-1.47,0V13.733A.736.736,0,0,1,5.732,13ZM4,18.642a2.251,2.251,0,0,1,0-4.387ZM20.016,5.965a9.916,9.916,0,0,0-13.532,0A.524.524,0,1,1,5.77,5.2a10.964,10.964,0,0,1,14.96,0,.524.524,0,0,1,.027.74.537.537,0,0,1-.741.027ZM14,24.25H12.5a.661.661,0,1,1,0-1.322H14a.661.661,0,0,1,0,1.322ZM20.768,19.9a.736.736,0,0,1-.735-.735V13.733a.735.735,0,0,1,1.47,0V19.16A.736.736,0,0,1,20.768,19.9ZM22.5,18.642V14.255a2.25,2.25,0,0,1,0,4.387Z"/>
        <path id="Path_139" data-name="Path 139" d="M13.248,18.036a4.79,4.79,0,1,0-3.554-1.578,1.61,1.61,0,0,1-.786.436.5.5,0,0,0-.048.956,3.4,3.4,0,0,0,2.641-.142,4.754,4.754,0,0,0,1.747.328Zm-2.024-1.313a2.366,2.366,0,0,1-.662.262,2.474,2.474,0,0,0,.223-.327.5.5,0,0,0-.1-.617,3.793,3.793,0,1,1,2.56.995,3.756,3.756,0,0,1-1.564-.336.5.5,0,0,0-.459.023Z"/>
        <path id="Path_140" data-name="Path 140" d="M12.061,12.53a.5.5,0,0,0,.5-.5.688.688,0,0,1,.826-.673.688.688,0,0,1,.144,1.3,1.274,1.274,0,0,0-.783,1.157v.375a.5.5,0,1,0,1,0v-.375c0-.146.148-.225.194-.245a1.689,1.689,0,1,0-1.77-2.841,1.682,1.682,0,0,0-.611,1.3.5.5,0,0,0,.5.5Z"/>
        <path id="Path_141" data-name="Path 141" d="M13.248,15.151a.5.5,0,0,0-.5.5v.005a.5.5,0,1,0,.5-.505Z"/>
      </g>
    </g>
  </g>
</svg>
