<svg id="mode-landscape" xmlns="http://www.w3.org/2000/svg" width="20.248" height="20.248" viewBox="0 0 20.248 20.248">
  <path id="Path_51" data-name="Path 51" d="M15.655,17.54a.844.844,0,0,0,.6-1.44l-5.207-5.206a4.218,4.218,0,0,0-5.965,0L3.247,12.725A.844.844,0,1,0,4.44,13.918l1.832-1.832a2.59,2.59,0,0,1,3.579,0l5.207,5.206A.844.844,0,0,0,15.655,17.54Z" transform="translate(-0.469 -1.51)" fill="#fff"/>
  <path id="Path_52" data-name="Path 52" d="M15.453,9.406A2.953,2.953,0,1,0,12.5,6.453,2.953,2.953,0,0,0,15.453,9.406Zm0-4.218a1.266,1.266,0,1,1-1.266,1.266,1.266,1.266,0,0,1,1.266-1.266Z" transform="translate(-1.954 -0.547)" fill="#fff"/>
  <path id="Path_53" data-name="Path 53" d="M21.906,16a.844.844,0,0,0-.844.844v1.687a2.531,2.531,0,0,1-2.531,2.531H16.844a.844.844,0,1,0,0,1.687h1.687a4.223,4.223,0,0,0,4.218-4.218V16.844A.844.844,0,0,0,21.906,16Z" transform="translate(-2.501 -2.501)" fill="#fff"/>
  <path id="Path_54" data-name="Path 54" d="M.844,6.749a.844.844,0,0,0,.844-.844V4.218A2.531,2.531,0,0,1,4.218,1.687H5.906A.844.844,0,1,0,5.906,0H4.218A4.223,4.223,0,0,0,0,4.218V5.906A.844.844,0,0,0,.844,6.749Z" fill="#fff"/>
  <path id="Path_55" data-name="Path 55" d="M5.906,21.062H4.218a2.531,2.531,0,0,1-2.531-2.531V16.844a.844.844,0,1,0-1.687,0v1.687a4.223,4.223,0,0,0,4.218,4.218H5.906a.844.844,0,1,0,0-1.687Z" transform="translate(0 -2.501)" fill="#fff"/>
  <path id="Path_56" data-name="Path 56" d="M18.531,0H16.844a.844.844,0,0,0,0,1.687h1.687a2.531,2.531,0,0,1,2.531,2.531V5.906a.844.844,0,0,0,1.687,0V4.218A4.223,4.223,0,0,0,18.531,0Z" transform="translate(-2.501)" fill="#fff"/>
</svg>
