<svg xmlns="http://www.w3.org/2000/svg" width="23.982" height="24" viewBox="0 0 23.982 24">
  <g id="night-mode" transform="translate(-1.253 -1.248)">
    <g id="Layer_48" transform="translate(1.253 1.248)">
      <path id="Path_144" data-name="Path 144" d="M24.785,15.6a1.117,1.117,0,0,0-1.328-.009A9.013,9.013,0,0,1,10.9,3.031a1.138,1.138,0,0,0-.013-1.337,1.075,1.075,0,0,0-1.22-.388,12.281,12.281,0,0,0,3.564,23.938c.1,0,.2,0,.3,0a12.276,12.276,0,0,0,11.64-8.39,1.1,1.1,0,0,0-.389-1.255Zm-3.437,5.187A11.064,11.064,0,0,1,5.33,20.4,11.059,11.059,0,0,1,9.736,2.575,10.234,10.234,0,0,0,23.918,16.758a10.929,10.929,0,0,1-2.57,4.031Z" transform="translate(-1.253 -1.248)"/>
      <path id="Path_145" data-name="Path 145" d="M17.6,9.483a4.247,4.247,0,0,1,2.938,2.939.789.789,0,0,0,.763.587h0a.79.79,0,0,0,.765-.587,4.256,4.256,0,0,1,2.94-2.94h0a.792.792,0,0,0,0-1.529,4.248,4.248,0,0,1-2.941-2.939A.789.789,0,0,0,21.3,4.43h0a.79.79,0,0,0-.763.587A4.238,4.238,0,0,1,17.6,7.954a.792.792,0,0,0,0,1.529Zm3.7-3.1A5.5,5.5,0,0,0,23.64,8.719,5.507,5.507,0,0,0,21.3,11.054a5.5,5.5,0,0,0-2.333-2.336A5.491,5.491,0,0,0,21.3,6.386Z" transform="translate(-4.192 -1.841)"/>
    </g>
  </g>
</svg>
