<?xml version="1.0" standalone="no"?>
<!DOCTYPE svg PUBLIC "-//W3C//DTD SVG 20010904//EN"
 "http://www.w3.org/TR/2001/REC-SVG-20010904/DTD/svg10.dtd">
<svg version="1.0" xmlns="http://www.w3.org/2000/svg"
 width="512.000000pt" height="512.000000pt" viewBox="0 0 512.000000 512.000000"
 preserveAspectRatio="xMidYMid meet">

<g transform="translate(0.000000,512.000000) scale(0.100000,-0.100000)"
fill="#000000" stroke="none">
<path d="M620 4525 l-595 -595 0 -1843 0 -1844 35 -69 c25 -49 49 -79 85 -106
96 -73 -29 -69 1765 -66 l1615 3 57 28 c67 33 111 80 147 157 24 51 26 67 29
235 l4 180 85 40 c214 98 401 231 588 419 139 140 222 244 323 405 70 114 77
148 36 180 -35 27 -70 27 -95 -1 -12 -13 -56 -77 -99 -143 -176 -274 -402
-491 -670 -647 -98 -57 -228 -118 -252 -118 -7 0 -63 25 -125 54 -399 193
-729 533 -935 963 -100 208 -180 480 -195 666 -7 81 1 94 91 137 252 120 467
357 566 621 11 31 29 64 40 74 48 44 464 75 750 56 214 -13 357 -34 376 -53 6
-7 28 -53 48 -102 105 -261 293 -464 552 -594 64 -32 84 -47 92 -70 19 -56
-35 -329 -104 -522 -19 -52 -34 -103 -34 -113 0 -27 45 -67 75 -67 46 0 71 39
119 188 52 161 96 376 98 473 2 113 -47 186 -162 236 -98 44 -215 130 -302
222 -89 95 -148 187 -203 322 -41 98 -59 126 -105 157 -44 30 -80 38 -240 56
-292 34 -594 30 -877 -9 -168 -24 -206 -54 -268 -211 -19 -47 -58 -124 -87
-170 l-53 -84 -1098 0 -1098 0 -24 -25 c-30 -29 -32 -64 -6 -96 l19 -24 1028
-5 1028 -5 -55 -37 c-30 -21 -99 -62 -154 -91 -86 -46 -104 -60 -130 -102 -27
-44 -30 -56 -30 -137 l0 -88 -827 0 c-585 0 -834 -3 -851 -11 -24 -11 -47 -47
-47 -73 0 -7 9 -25 21 -40 l20 -26 856 -2 855 -3 33 -120 c18 -66 52 -167 74
-225 23 -58 41 -108 41 -112 0 -5 -419 -9 -931 -10 l-932 -3 -19 -26 c-15 -20
-18 -35 -13 -58 14 -64 -35 -61 1022 -61 l958 0 40 -72 c52 -92 137 -214 214
-305 34 -40 61 -75 61 -78 0 -3 -508 -6 -1130 -7 -1244 -3 -1153 2 -1166 -65
-5 -26 -1 -37 19 -57 l26 -26 1206 0 1205 0 73 -61 c106 -90 265 -192 405
-261 l124 -60 -4 -166 c-3 -153 -5 -170 -26 -204 -13 -21 -40 -45 -66 -57 -42
-21 -45 -21 -1626 -21 -1581 0 -1584 0 -1626 21 -26 12 -53 36 -66 57 l-23 37
-3 1777 -2 1777 472 3 473 3 51 27 c29 15 68 46 87 69 67 77 67 81 67 591 l0
458 1077 0 c1069 0 1077 0 1119 -21 26 -12 53 -36 66 -57 l23 -37 5 -603 c5
-583 6 -604 24 -618 28 -20 69 -17 97 5 l24 19 0 609 0 608 -26 55 c-36 77
-80 124 -147 157 l-57 28 -1155 3 -1154 2 -596 -595z m533 -488 c-10 -16 -34
-38 -53 -48 -32 -18 -63 -19 -422 -19 -214 0 -388 3 -388 7 0 5 197 205 438
446 l437 437 3 -396 c2 -364 1 -399 -15 -427z"/>
<path d="M1322 3744 c-30 -21 -31 -83 -1 -110 20 -18 44 -19 569 -19 525 0
549 1 569 19 14 13 21 31 21 57 0 72 23 69 -590 69 -478 0 -548 -2 -568 -16z"/>
<path d="M3568 2997 c-106 -40 -191 -120 -230 -217 -19 -47 -22 -74 -23 -190
0 -126 2 -139 27 -192 37 -79 70 -120 131 -162 190 -128 440 -59 543 149 28
58 29 65 29 205 0 136 -2 148 -27 202 -35 76 -107 151 -176 185 -46 22 -72 28
-146 30 -59 2 -104 -2 -128 -10z m211 -157 c48 -24 98 -83 111 -130 6 -19 10
-76 10 -126 0 -81 -3 -98 -28 -145 -48 -93 -161 -141 -257 -109 -58 19 -121
83 -141 142 -23 71 -16 217 14 275 22 43 68 84 112 102 44 17 137 13 179 -9z"/>
<path d="M3276 2176 c-60 -23 -87 -47 -123 -113 -56 -102 -73 -191 -73 -385 0
-130 4 -177 15 -206 21 -49 52 -81 100 -103 37 -17 74 -19 485 -19 443 0 446
0 490 23 24 12 58 39 74 60 l31 39 3 193 c4 220 -6 274 -65 388 -39 73 -75
107 -136 127 -51 16 -90 7 -194 -43 -88 -42 -88 -42 -203 -42 -115 0 -115 0
-204 43 -103 49 -146 57 -200 38z m92 -154 c11 -11 62 -91 115 -179 55 -91
109 -169 124 -179 39 -26 113 -25 150 2 15 11 73 95 128 187 55 91 108 170
118 177 40 25 79 -21 111 -129 20 -69 23 -370 4 -389 -9 -9 -120 -12 -439 -12
-363 0 -428 2 -439 15 -9 10 -11 62 -8 192 3 170 4 181 31 238 45 95 69 113
105 77z m381 -103 c-6 -12 -24 -42 -39 -66 l-29 -45 -26 44 c-15 23 -34 53
-41 66 l-14 22 80 0 c79 0 81 0 69 -21z"/>
</g>
</svg>
