<svg xmlns="http://www.w3.org/2000/svg" width="24" height="24" viewBox="0 0 24 24">
  <g id="briefcase" transform="translate(-202 -879)">
    <path id="Path_33" data-name="Path 33" d="M62,922.59c-3.612-.436-5.091,2.46-6.331,4.608s-.81,2.74,1.37,3.985,4.079,1.557,7.348,1,6.326-.841,5.729-3.238S65.612,923.026,62,922.59Z" transform="translate(147.017 -39.448)" fill="rgba(50,63,75,0.35)"/>
    <path id="briefcase-2" data-name="briefcase" d="M19,4H17.9A5.009,5.009,0,0,0,13,0H11A5.009,5.009,0,0,0,6.1,4H5A5.006,5.006,0,0,0,0,9V19a5.006,5.006,0,0,0,5,5H19a5.006,5.006,0,0,0,5-5V9a5.006,5.006,0,0,0-5-5ZM11,2h2a3,3,0,0,1,2.816,2H8.184A3,3,0,0,1,11,2ZM5,6H19a3,3,0,0,1,3,3v3H2V9A3,3,0,0,1,5,6ZM19,22H5a3,3,0,0,1-3-3V14h9v1a1,1,0,0,0,2,0V14h9v5A3,3,0,0,1,19,22Z" transform="translate(202 879)"/>
  </g>
</svg>
