<?xml version="1.0" standalone="no"?>
<!DOCTYPE svg PUBLIC "-//W3C//DTD SVG 20010904//EN"
 "http://www.w3.org/TR/2001/REC-SVG-20010904/DTD/svg10.dtd">
<svg version="1.0" xmlns="http://www.w3.org/2000/svg"
 width="64.000000pt" height="64.000000pt" viewBox="0 0 64.000000 64.000000"
 preserveAspectRatio="xMidYMid meet">

<g transform="translate(0.000000,64.000000) scale(0.100000,-0.100000)"
fill="#000000" stroke="none">
<path d="M350 545 c-7 -8 -18 -15 -25 -15 -7 0 -18 -7 -25 -15 -7 -8 -21 -15
-31 -15 -27 0 -32 -15 -33 -106 -1 -54 2 -75 7 -61 5 12 7 47 4 77 -5 63 -1
80 18 80 16 0 88 41 93 52 7 16 42 7 92 -22 28 -16 57 -30 65 -30 17 0 17 3
17 -100 0 -103 0 -100 -17 -100 -8 0 -37 -14 -65 -30 -52 -31 -103 -44 -66
-17 10 7 17 22 14 33 -3 17 -13 19 -83 22 -80 3 -81 2 -110 -30 l-30 -33 31
28 c27 24 37 27 107 27 70 0 77 -2 77 -20 0 -13 -9 -22 -27 -26 -50 -11 -54
-14 -51 -36 3 -21 9 -23 70 -26 59 -3 73 0 105 23 21 14 43 25 50 25 27 0 11
-36 -30 -67 l-43 -32 -145 -4 -144 -3 146 -2 146 -2 47 37 c76 59 48 112 -31
59 -30 -21 -50 -26 -100 -26 -57 0 -63 2 -63 21 0 19 4 20 48 14 38 -5 51 -3
61 9 8 9 19 16 26 16 7 0 18 7 25 15 7 8 21 15 31 15 27 0 32 16 33 104 2 90
-6 116 -33 116 -10 0 -24 7 -31 15 -7 8 -18 15 -25 15 -7 0 -18 7 -25 15 -7 8
-25 15 -40 15 -15 0 -33 -7 -40 -15z"/>
<path d="M311 469 c-26 -26 -31 -38 -31 -79 0 -32 5 -52 17 -61 15 -13 15 -12
5 8 -22 40 -15 92 17 124 65 64 171 20 171 -72 0 -35 -6 -47 -36 -75 -19 -19
-31 -34 -25 -34 5 0 23 14 40 31 26 26 31 38 31 79 0 41 -5 53 -31 79 -26 26
-38 31 -79 31 -41 0 -53 -5 -79 -31z"/>
<path d="M353 441 c-3 -11 -13 -21 -24 -24 -10 -3 -19 -13 -19 -23 0 -21 60
-84 80 -84 20 0 80 63 80 84 0 10 -9 20 -19 23 -11 3 -21 13 -24 24 -4 14 -14
19 -37 19 -23 0 -33 -5 -37 -19z m57 -7 c0 -9 9 -18 20 -21 13 -3 20 -14 20
-29 0 -17 -6 -24 -20 -24 -13 0 -20 -7 -20 -20 0 -13 -7 -20 -20 -20 -13 0
-20 7 -20 20 0 13 -7 20 -20 20 -14 0 -20 7 -20 24 0 15 7 26 20 29 11 3 20
12 20 21 0 9 8 16 20 16 12 0 20 -7 20 -16z"/>
<path d="M77 273 c-4 -3 -7 -46 -7 -93 0 -97 9 -114 57 -108 l28 3 3 103 3
102 -39 0 c-21 0 -42 -3 -45 -7z m73 -48 c0 -45 0 -45 -35 -45 -35 0 -35 0
-35 45 0 45 0 45 35 45 35 0 35 0 35 -45z m-2 -103 l3 -43 -33 3 c-25 2 -34 8
-36 25 -5 34 16 65 41 61 18 -2 23 -11 25 -46z"/>
<path d="M100 140 c0 -13 7 -20 20 -20 13 0 20 7 20 20 0 13 -7 20 -20 20 -13
0 -20 -7 -20 -20z m30 0 c0 -5 -4 -10 -10 -10 -5 0 -10 5 -10 10 0 6 5 10 10
10 6 0 10 -4 10 -10z"/>
</g>
</svg>
