<svg xmlns="http://www.w3.org/2000/svg" width="20.922" height="20.899" viewBox="0 0 20.922 20.899">
  <path id="share" d="M16.83,12.771a4.058,4.058,0,0,0-3.343,1.762L7.82,11.974a3.983,3.983,0,0,0,0-3.037l5.66-2.572a4.058,4.058,0,1,0-.72-2.3,4.034,4.034,0,0,0,.07.684L6.817,7.482A4.065,4.065,0,1,0,6.8,13.427l6.032,2.724a4.124,4.124,0,0,0-.069.684,4.064,4.064,0,1,0,4.063-4.063Zm0-11.03a2.322,2.322,0,1,1-2.321,2.322A2.322,2.322,0,0,1,16.83,1.741ZM4.06,12.771a2.322,2.322,0,1,1,2.321-2.322A2.322,2.322,0,0,1,4.06,12.771Zm12.77,6.385a2.322,2.322,0,1,1,2.322-2.322,2.322,2.322,0,0,1-2.322,2.322Z" transform="translate(0.027 0.001)"/>
</svg>
