<svg xmlns="http://www.w3.org/2000/svg" width="18" height="24" viewBox="0 0 18 24">
  <g id="user" transform="translate(-361 -879)">
    <path id="Path_35" data-name="Path 35" d="M60.533,922.59c-2.857-.436-4.027,2.46-5.008,4.608s-.64,2.74,1.084,3.985,3.226,1.557,5.812,1,5-.841,4.531-3.238S63.39,923.026,60.533,922.59Z" transform="translate(308.809 -43.546)" fill="rgba(50,63,75,0.35)"/>
    <g id="user_1_" data-name="user (1)" transform="translate(358 879)">
      <path id="Path_29" data-name="Path 29" d="M12,12A6,6,0,1,0,6,6a6,6,0,0,0,6,6ZM12,2A4,4,0,1,1,8,6a4,4,0,0,1,4-4Z"/>
      <path id="Path_30" data-name="Path 30" d="M12,14a9.01,9.01,0,0,0-9,9,1,1,0,1,0,2,0,7,7,0,0,1,14,0,1,1,0,0,0,2,0A9.01,9.01,0,0,0,12,14Z"/>
    </g>
  </g>
</svg>
