<svg id="Zoom" xmlns="http://www.w3.org/2000/svg" width="61.657" height="61.657" viewBox="0 0 61.657 61.657">
    <g id="Layer_x0020_1">
        <g id="_1639424393248">
            <path id="Path_61" data-name="Path 61" d="M30.829,0A30.829,30.829,0,1,1,0,30.829,30.828,30.828,0,0,1,30.829,0Z" fill="#2d8cff"/>
            <path id="Path_62" data-name="Path 62" d="M117.44,181.721v12.221a5,5,0,0,0,5.02,4.976h17.814a.909.909,0,0,0,.914-.9V185.794a5,5,0,0,0-5.02-4.976H118.354A.91.91,0,0,0,117.44,181.721Zm24.883,4.766,7.354-5.372c.638-.529,1.134-.4,1.134.561v16.383c0,1.09-.606.959-1.134.562l-7.354-5.362Z" transform="translate(-103.297 -159.035)" fill="#fff"/>
        </g>
    </g>
</svg>
